<mxfile host="app.diagrams.net" modified="2021-05-17T14:50:32.225Z" agent="5.0 (Windows NT 10.0; Win64; x64) AppleWebKit/537.36 (KHTML, like Gecko) Chrome/90.0.4430.212 Safari/537.36" etag="BlRXJbHxAzMydH_2L4vp" version="14.6.11" type="github">
  <diagram id="o4O8a7EBtK5oRw8HxuOW" name="Page-1">
    <mxGraphModel dx="1022" dy="437" grid="1" gridSize="10" guides="1" tooltips="1" connect="1" arrows="1" fold="1" page="1" pageScale="1" pageWidth="827" pageHeight="1169" math="0" shadow="0">
      <root>
        <mxCell id="0" />
        <mxCell id="1" parent="0" />
        <mxCell id="bLQx4u1SUMKuMdxCQeeX-1" value="Cgraphe" style="swimlane;fontStyle=1;align=center;verticalAlign=top;childLayout=stackLayout;horizontal=1;startSize=26;horizontalStack=0;resizeParent=1;resizeParentMax=0;resizeLast=0;collapsible=1;marginBottom=0;" parent="1" vertex="1">
          <mxGeometry x="10" y="54" width="420" height="200" as="geometry" />
        </mxCell>
        <mxCell id="bLQx4u1SUMKuMdxCQeeX-2" value="-  pSOMtab : Csommet**" style="text;strokeColor=none;fillColor=none;align=left;verticalAlign=top;spacingLeft=4;spacingRight=4;overflow=hidden;rotatable=0;points=[[0,0.5],[1,0.5]];portConstraint=eastwest;" parent="bLQx4u1SUMKuMdxCQeeX-1" vertex="1">
          <mxGeometry y="26" width="420" height="26" as="geometry" />
        </mxCell>
        <mxCell id="bLQx4u1SUMKuMdxCQeeX-3" value="" style="line;strokeWidth=1;fillColor=none;align=left;verticalAlign=middle;spacingTop=-1;spacingLeft=3;spacingRight=3;rotatable=0;labelPosition=right;points=[];portConstraint=eastwest;" parent="bLQx4u1SUMKuMdxCQeeX-1" vertex="1">
          <mxGeometry y="52" width="420" height="8" as="geometry" />
        </mxCell>
        <mxCell id="bLQx4u1SUMKuMdxCQeeX-4" value="&lt;&lt;create&gt;&gt;+ Cgraphe(eDest : entier)&#xa;&lt;&lt;destroy&gt;&gt; +Cgraphe()&#xa;+GRAAddSommet(eNum : entier)&#xa;+GRADeleteSommet(eNumSom : entier)&#xa;&#xa;+GRAAddArc( eNumSommetDepart : entier, eNumSommetArrive : entier )&#xa;+GRADeleteArc ( eNumSommetDepart : entier, eNumSommetArrive : entier )&#xa;&#xa;+GRAAfficherGraph()" style="text;strokeColor=none;fillColor=none;align=left;verticalAlign=top;spacingLeft=4;spacingRight=4;overflow=hidden;rotatable=0;points=[[0,0.5],[1,0.5]];portConstraint=eastwest;" parent="bLQx4u1SUMKuMdxCQeeX-1" vertex="1">
          <mxGeometry y="60" width="420" height="140" as="geometry" />
        </mxCell>
        <mxCell id="zVvoivQQcT_Ts4mum_z7-1" value="Csommet" style="swimlane;fontStyle=1;align=center;verticalAlign=top;childLayout=stackLayout;horizontal=1;startSize=26;horizontalStack=0;resizeParent=1;resizeParentMax=0;resizeLast=0;collapsible=1;marginBottom=0;" parent="1" vertex="1">
          <mxGeometry x="527.5" y="24" width="260" height="260" as="geometry" />
        </mxCell>
        <mxCell id="zVvoivQQcT_Ts4mum_z7-2" value="- eNumero : entier&#xa;- pARCtabArrivant : Carc**&#xa;- pARCtabSortant : Carc**" style="text;strokeColor=none;fillColor=none;align=left;verticalAlign=top;spacingLeft=4;spacingRight=4;overflow=hidden;rotatable=0;points=[[0,0.5],[1,0.5]];portConstraint=eastwest;" parent="zVvoivQQcT_Ts4mum_z7-1" vertex="1">
          <mxGeometry y="26" width="260" height="54" as="geometry" />
        </mxCell>
        <mxCell id="zVvoivQQcT_Ts4mum_z7-3" value="" style="line;strokeWidth=1;fillColor=none;align=left;verticalAlign=middle;spacingTop=-1;spacingLeft=3;spacingRight=3;rotatable=0;labelPosition=right;points=[];portConstraint=eastwest;" parent="zVvoivQQcT_Ts4mum_z7-1" vertex="1">
          <mxGeometry y="80" width="260" height="8" as="geometry" />
        </mxCell>
        <mxCell id="zVvoivQQcT_Ts4mum_z7-4" value="&lt;&lt;create&gt;&gt;+ Csommet(eNum: entier)&#xa;&lt;&lt;destroy&gt;&gt;+ Csommet()&#xa;&#xa;+ SOMAddArcArrivant (pARCelem : Carc*)&#xa;+ SOMAddArcSortant(pARCelem : Carc*)&#xa;&#xa;+ SOMDeleteArcArrivant(eDest : entier)&#xa;+ SOMDeleteArcSortant(eDest : entier);&#xa;&#xa;+ SOMGetSomNum() : entier&#xa;+ SOMAfficherSommet()" style="text;strokeColor=none;fillColor=none;align=left;verticalAlign=top;spacingLeft=4;spacingRight=4;overflow=hidden;rotatable=0;points=[[0,0.5],[1,0.5]];portConstraint=eastwest;" parent="zVvoivQQcT_Ts4mum_z7-1" vertex="1">
          <mxGeometry y="88" width="260" height="172" as="geometry" />
        </mxCell>
        <mxCell id="zVvoivQQcT_Ts4mum_z7-5" value="Carc" style="swimlane;fontStyle=1;align=center;verticalAlign=top;childLayout=stackLayout;horizontal=1;startSize=26;horizontalStack=0;resizeParent=1;resizeParentMax=0;resizeLast=0;collapsible=1;marginBottom=0;" parent="1" vertex="1">
          <mxGeometry x="555" y="430" width="205" height="130" as="geometry" />
        </mxCell>
        <mxCell id="zVvoivQQcT_Ts4mum_z7-6" value="- eDestination  : entier" style="text;strokeColor=none;fillColor=none;align=left;verticalAlign=top;spacingLeft=4;spacingRight=4;overflow=hidden;rotatable=0;points=[[0,0.5],[1,0.5]];portConstraint=eastwest;" parent="zVvoivQQcT_Ts4mum_z7-5" vertex="1">
          <mxGeometry y="26" width="205" height="26" as="geometry" />
        </mxCell>
        <mxCell id="zVvoivQQcT_Ts4mum_z7-7" value="" style="line;strokeWidth=1;fillColor=none;align=left;verticalAlign=middle;spacingTop=-1;spacingLeft=3;spacingRight=3;rotatable=0;labelPosition=right;points=[];portConstraint=eastwest;" parent="zVvoivQQcT_Ts4mum_z7-5" vertex="1">
          <mxGeometry y="52" width="205" height="8" as="geometry" />
        </mxCell>
        <mxCell id="zVvoivQQcT_Ts4mum_z7-8" value="&lt;&lt;create&gt;&gt;+ Carc(eDest : entier)&#xa;&lt;&lt;destroy&gt;&gt;+ Carc();&#xa;+ ARCModifDest(eNewDest : entier)&#xa;+ ARCGetDest() : entier" style="text;strokeColor=none;fillColor=none;align=left;verticalAlign=top;spacingLeft=4;spacingRight=4;overflow=hidden;rotatable=0;points=[[0,0.5],[1,0.5]];portConstraint=eastwest;" parent="zVvoivQQcT_Ts4mum_z7-5" vertex="1">
          <mxGeometry y="60" width="205" height="70" as="geometry" />
        </mxCell>
        <mxCell id="zVvoivQQcT_Ts4mum_z7-9" value="Cexception" style="swimlane;fontStyle=1;align=center;verticalAlign=top;childLayout=stackLayout;horizontal=1;startSize=26;horizontalStack=0;resizeParent=1;resizeParentMax=0;resizeLast=0;collapsible=1;marginBottom=0;" parent="1" vertex="1">
          <mxGeometry x="105" y="420" width="230" height="150" as="geometry" />
        </mxCell>
        <mxCell id="zVvoivQQcT_Ts4mum_z7-10" value="- eEXCCode: entier" style="text;strokeColor=none;fillColor=none;align=left;verticalAlign=top;spacingLeft=4;spacingRight=4;overflow=hidden;rotatable=0;points=[[0,0.5],[1,0.5]];portConstraint=eastwest;" parent="zVvoivQQcT_Ts4mum_z7-9" vertex="1">
          <mxGeometry y="26" width="230" height="26" as="geometry" />
        </mxCell>
        <mxCell id="zVvoivQQcT_Ts4mum_z7-11" value="" style="line;strokeWidth=1;fillColor=none;align=left;verticalAlign=middle;spacingTop=-1;spacingLeft=3;spacingRight=3;rotatable=0;labelPosition=right;points=[];portConstraint=eastwest;" parent="zVvoivQQcT_Ts4mum_z7-9" vertex="1">
          <mxGeometry y="52" width="230" height="8" as="geometry" />
        </mxCell>
        <mxCell id="zVvoivQQcT_Ts4mum_z7-12" value="&lt;&lt;create&gt;&gt;+ Cexception()&#xa;&lt;&lt;create&gt;&gt;+ Cexception(eElem : entier)&#xa;&lt;&lt;destroy&gt;&gt;+ Cexception()&#xa;+ EXCLire_Code() : entier&#xa;+ EXCModifier_Code(eCode : entier)" style="text;strokeColor=none;fillColor=none;align=left;verticalAlign=top;spacingLeft=4;spacingRight=4;overflow=hidden;rotatable=0;points=[[0,0.5],[1,0.5]];portConstraint=eastwest;" parent="zVvoivQQcT_Ts4mum_z7-9" vertex="1">
          <mxGeometry y="60" width="230" height="90" as="geometry" />
        </mxCell>
        <mxCell id="oKEsJH-ae9x5906RW8em-7" value="&amp;lt;&amp;lt;include&amp;gt;&amp;gt;" style="html=1;verticalAlign=bottom;labelBackgroundColor=none;endArrow=open;endFill=0;dashed=1;" edge="1" parent="1" source="zVvoivQQcT_Ts4mum_z7-1" target="zVvoivQQcT_Ts4mum_z7-9">
          <mxGeometry x="0.6473" y="-17" width="160" relative="1" as="geometry">
            <mxPoint x="500" y="460" as="sourcePoint" />
            <mxPoint x="460" y="570" as="targetPoint" />
            <mxPoint as="offset" />
          </mxGeometry>
        </mxCell>
        <mxCell id="oKEsJH-ae9x5906RW8em-8" value="&amp;lt;&amp;lt;include&amp;gt;&amp;gt;" style="html=1;verticalAlign=bottom;labelBackgroundColor=none;endArrow=open;endFill=0;dashed=1;" edge="1" parent="1" source="bLQx4u1SUMKuMdxCQeeX-1" target="zVvoivQQcT_Ts4mum_z7-9">
          <mxGeometry width="160" relative="1" as="geometry">
            <mxPoint x="100" y="300" as="sourcePoint" />
            <mxPoint x="470" y="580" as="targetPoint" />
          </mxGeometry>
        </mxCell>
        <mxCell id="oKEsJH-ae9x5906RW8em-10" value="&amp;lt;&amp;lt;include&amp;gt;&amp;gt;" style="html=1;verticalAlign=bottom;labelBackgroundColor=none;endArrow=open;endFill=0;dashed=1;" edge="1" parent="1" source="bLQx4u1SUMKuMdxCQeeX-1" target="zVvoivQQcT_Ts4mum_z7-1">
          <mxGeometry width="160" relative="1" as="geometry">
            <mxPoint x="530" y="490" as="sourcePoint" />
            <mxPoint x="490" y="600" as="targetPoint" />
          </mxGeometry>
        </mxCell>
        <mxCell id="oKEsJH-ae9x5906RW8em-11" value="&amp;lt;&amp;lt;include&amp;gt;&amp;gt;" style="html=1;verticalAlign=bottom;labelBackgroundColor=none;endArrow=open;endFill=0;dashed=1;" edge="1" parent="1" source="bLQx4u1SUMKuMdxCQeeX-1" target="zVvoivQQcT_Ts4mum_z7-5">
          <mxGeometry x="-0.4503" y="16" width="160" relative="1" as="geometry">
            <mxPoint x="540" y="500" as="sourcePoint" />
            <mxPoint x="500" y="610" as="targetPoint" />
            <mxPoint as="offset" />
          </mxGeometry>
        </mxCell>
        <mxCell id="oKEsJH-ae9x5906RW8em-13" value="&amp;lt;&amp;lt;include&amp;gt;&amp;gt;" style="html=1;verticalAlign=bottom;labelBackgroundColor=none;endArrow=open;endFill=0;dashed=1;" edge="1" parent="1" source="zVvoivQQcT_Ts4mum_z7-1" target="zVvoivQQcT_Ts4mum_z7-5">
          <mxGeometry width="160" relative="1" as="geometry">
            <mxPoint x="550" y="510" as="sourcePoint" />
            <mxPoint x="510" y="620" as="targetPoint" />
          </mxGeometry>
        </mxCell>
      </root>
    </mxGraphModel>
  </diagram>
</mxfile>
